<svg width="28" height="28" viewBox="0 0 28 28" fill="none" xmlns="http://www.w3.org/2000/svg">
<path d="M20.9359 17.2397C21.0081 17.3017 21.093 17.3501 21.1858 17.3823C21.2786 17.4145 21.3774 17.4297 21.4767 17.4271C21.5759 17.4246 21.6737 17.4043 21.7643 17.3674C21.8549 17.3305 21.9367 17.2778 22.0049 17.2122C22.0731 17.1466 22.1264 17.0694 22.1618 16.9851C22.1972 16.9008 22.2139 16.811 22.2111 16.7208C22.2083 16.6305 22.186 16.5417 22.1454 16.4594C22.1048 16.377 22.0468 16.3027 21.9746 16.2407L15.171 10.4007C15.0307 10.2801 14.8449 10.2129 14.6517 10.2129C14.4586 10.2129 14.2727 10.2801 14.1324 10.4007L7.32804 16.2407C7.25429 16.3023 7.19473 16.3766 7.15283 16.4592C7.11093 16.5419 7.08753 16.6313 7.08397 16.7223C7.08042 16.8132 7.09678 16.9039 7.13212 16.9891C7.16746 17.0743 7.22106 17.1522 7.28982 17.2184C7.35858 17.2846 7.44111 17.3377 7.53264 17.3746C7.62417 17.4115 7.72286 17.4316 7.82299 17.4336C7.92311 17.4356 8.02267 17.4194 8.11588 17.3861C8.20909 17.3529 8.2941 17.3031 8.36596 17.2397L14.6517 11.8449L20.9359 17.2397Z" fill="#8A8A8A"/>
</svg>
