<svg width="26" height="26" viewBox="0 0 26 26" fill="none" xmlns="http://www.w3.org/2000/svg">
<path d="M16.6563 7.31295C15.9611 7.31253 15.269 7.40579 14.5987 7.59022C14.3341 7.15848 14.0126 6.76427 13.643 6.41819L14.6088 5.03998C14.6701 4.95256 14.7135 4.85393 14.7366 4.74973C14.7597 4.64553 14.762 4.5378 14.7435 4.43269C14.725 4.32759 14.6859 4.22716 14.6286 4.13714C14.5712 4.04713 14.4967 3.96929 14.4093 3.90807C14.3218 3.84685 14.2232 3.80345 14.119 3.78035C14.0148 3.75725 13.9071 3.7549 13.802 3.77343C13.6969 3.79196 13.5964 3.83101 13.5064 3.88836C13.4164 3.9457 13.3386 4.02021 13.2774 4.10764L12.3115 5.48483C11.5172 5.0838 10.6399 4.87506 9.7501 4.87545C9.69119 4.87545 9.63228 4.87545 9.57338 4.87545L9.27986 3.221C9.26446 3.1132 9.22754 3.00959 9.1713 2.91634C9.11506 2.82309 9.04065 2.74209 8.95249 2.67816C8.86433 2.61424 8.76422 2.56869 8.65811 2.54422C8.552 2.51975 8.44205 2.51686 8.33479 2.53572C8.22754 2.55458 8.12518 2.59481 8.03378 2.65402C7.94238 2.71323 7.86382 2.7902 7.80276 2.88037C7.74171 2.97054 7.6994 3.07206 7.67835 3.17891C7.6573 3.28575 7.65795 3.39574 7.68025 3.50233L7.97275 5.16186C7.07164 5.4599 6.25926 5.97833 5.60939 6.67006L4.22611 5.70217C4.13875 5.63945 4.03981 5.59469 3.93503 5.5705C3.83024 5.5463 3.72169 5.54315 3.61568 5.56122C3.50967 5.5793 3.4083 5.61823 3.31745 5.67578C3.2266 5.73333 3.14808 5.80834 3.08644 5.89647C3.0248 5.98459 2.98126 6.08408 2.95836 6.18915C2.93546 6.29423 2.93365 6.40281 2.95303 6.50859C2.97241 6.61437 3.0126 6.71525 3.07126 6.80539C3.12993 6.89552 3.2059 6.97311 3.29478 7.03366L4.67197 8.00053C4.26952 8.79463 4.0607 9.6727 4.06259 10.563C4.06259 10.6208 4.06259 10.6797 4.06259 10.7376L2.40814 11.0301C2.20789 11.0652 2.02806 11.1741 1.90416 11.3353C1.78026 11.4965 1.72129 11.6983 1.73889 11.9008C1.75649 12.1033 1.84939 12.2919 1.99923 12.4293C2.14908 12.5667 2.34499 12.6429 2.5483 12.643C2.59561 12.6429 2.64284 12.6388 2.68947 12.6308L4.34697 12.3383C4.4926 12.7817 4.6925 13.2053 4.94213 13.5997C4.16496 14.3215 3.62317 15.2607 3.38731 16.2948C3.15144 17.329 3.23244 18.4102 3.61975 19.3976C4.00706 20.3851 4.68274 21.233 5.55878 21.8311C6.43483 22.4291 7.47065 22.7495 8.53134 22.7505H16.6563C18.7035 22.7505 20.6668 21.9372 22.1143 20.4897C23.5619 19.0421 24.3751 17.0788 24.3751 15.0317C24.3751 12.9846 23.5619 11.0213 22.1143 9.57372C20.6668 8.12618 18.7035 7.31295 16.6563 7.31295ZM5.68759 10.563C5.68808 9.70257 5.96171 8.86456 6.46906 8.16968C6.97641 7.47481 7.69127 6.95895 8.51063 6.69645C9.32999 6.43394 10.2115 6.43835 11.0282 6.70904C11.8449 6.97973 12.5546 7.50272 13.0549 8.20264C11.3975 9.07486 10.1123 10.5181 9.43728 12.2651C8.36919 12.0808 7.27025 12.2286 6.28884 12.6887C5.89593 12.0492 5.68781 11.3135 5.68759 10.563ZM16.6563 21.1255H8.53134C8.03128 21.1245 7.53671 21.021 7.07823 20.8214C6.61975 20.6217 6.2071 20.3301 5.8658 19.9646C5.5245 19.5991 5.2618 19.1675 5.09395 18.6965C4.92609 18.2254 4.85665 17.7249 4.88992 17.226C4.92319 16.727 5.05846 16.2402 5.28737 15.7956C5.51627 15.351 5.83395 14.958 6.22075 14.6411C6.60756 14.3242 7.05526 14.0899 7.53619 13.9529C8.01712 13.8159 8.52105 13.779 9.01681 13.8444C8.97924 14.0851 8.95283 14.3309 8.93861 14.5787C8.92622 14.7942 8.99994 15.0058 9.14355 15.1669C9.28716 15.3281 9.4889 15.4256 9.70439 15.438C9.91988 15.4503 10.1315 15.3766 10.2926 15.233C10.4537 15.0894 10.5512 14.8877 10.5636 14.6722C10.5864 14.2669 10.6504 13.865 10.7545 13.4727C10.7545 13.4565 10.7637 13.4402 10.7667 13.424C11.0654 12.3265 11.6649 11.3344 12.4976 10.5597C13.3302 9.78501 14.3629 9.25852 15.479 9.03971C16.5951 8.82091 17.7502 8.9185 18.8138 9.32146C19.8773 9.72443 20.807 10.4167 21.4979 11.3202C22.1888 12.2236 22.6134 13.3022 22.7237 14.4342C22.8339 15.5662 22.6255 16.7065 22.122 17.7263C21.6184 18.7461 20.8398 19.6048 19.874 20.2054C18.9082 20.8061 17.7937 21.1247 16.6563 21.1255Z" fill="#525252"/>
</svg>
